<svg width="32" height="32" viewBox="0 0 32 32" fill="none" xmlns="http://www.w3.org/2000/svg">
<rect width="32" height="32" rx="16" fill="#0D0D0D"/>
<path d="M24.5 21.913C24.5 23.3418 23.3418 24.5 21.913 24.5C20.4843 24.5 19.3261 23.3418 19.3261 21.913C19.3261 20.4843 20.4843 19.3261 21.913 19.3261C23.3418 19.3261 24.5 20.4843 24.5 21.913Z" fill="#7B61FF"/>
<path d="M21.0222 7.5C24.1401 7.5 25.6768 11.1338 23.4385 13.2138L12.0787 23.7702C11.0084 24.7648 9.29937 24.7396 8.2615 23.7139C7.22365 22.6882 7.24996 21.0504 8.32025 20.0558C8.32025 20.0558 13.2846 15.6304 15.2128 13.7826C15.751 13.2669 15.2273 12.6739 14.4401 12.6739H10.1995C8.70861 12.6739 7.50002 11.5157 7.50002 10.087C7.50002 8.65822 8.70861 7.5 10.1995 7.5H21.0222Z" fill="#7B61FF"/>
</svg>
