<svg width="32" height="32" viewBox="0 0 32 32" fill="none" xmlns="http://www.w3.org/2000/svg">
<rect width="32" height="32" rx="16" fill="#0D0D0D"/>
<path d="M20.7085 7.5C23.986 7.5 25.7807 11.6948 23.4279 13.7711L12.3132 23.7404C9.83091 25.5754 7.5 23.7404 7.5 21.8866C7.5 18.7344 11.3849 18.1977 11.3849 15.6155C11.3849 13.0333 7.5 13.0333 7.50003 10.0822C7.50005 8.65609 8.7705 7.5 10.3377 7.5H20.7085Z" fill="#7B61FF"/>
<path d="M21.9839 18.6069C22.7772 17.8988 24.0486 18.2336 24.271 19.2734C24.62 20.9051 24.6775 22.6311 23.6624 23.6181C22.5741 24.6762 20.6284 24.6227 18.8573 24.2787C17.7369 24.0611 17.4396 22.663 18.291 21.903L21.9839 18.6069Z" fill="#7B61FF"/>
</svg>
