<svg width="23" height="23" viewBox="0 0 23 23" fill="none" xmlns="http://www.w3.org/2000/svg">
<path d="M23 19.5C23 21.433 21.433 23 19.5 23C17.567 23 16 21.433 16 19.5C16 17.567 17.567 16 19.5 16C21.433 16 23 17.567 23 19.5Z" fill="#7B61FF"/>
<path d="M18.2948 0C22.5131 0 24.5921 4.91625 21.5639 7.73046L6.19475 22.0127C4.74669 23.3583 2.43444 23.3242 1.03027 21.9365C-0.373888 20.5488 -0.338294 18.3329 1.10976 16.9873C1.10976 16.9873 7.8262 11 10.4349 8.49999C11.1631 7.80222 10.4545 7 9.38948 6.99999H3.65225C1.63518 6.99999 2.51809e-05 5.43299 2.51809e-05 3.5C2.51809e-05 1.567 1.63518 0 3.65225 0H18.2948Z" fill="#7B61FF"/>
</svg>
