<svg width="23" height="23" viewBox="0 0 23 23" fill="none" xmlns="http://www.w3.org/2000/svg">
<path d="M17.8703 0C22.3046 0 24.7328 5.67534 21.5495 8.48438L6.51191 21.9722C3.15358 24.455 0 21.9722 0 19.4642C0 15.1995 5.25597 14.4734 5.25597 10.9798C5.25597 7.48622 0 7.48622 4.54883e-05 3.49357C6.74705e-05 1.56412 1.71891 0 3.83925 0H17.8703Z" fill="#7B61FF"/>
<path d="M19.5959 15.0269C20.6692 14.0689 22.3893 14.522 22.6902 15.9288C23.1624 18.1363 23.2402 20.4715 21.8668 21.8068C20.3944 23.2384 17.7619 23.166 15.3658 22.7006C13.85 22.4062 13.4477 20.5147 14.5996 19.4864L19.5959 15.0269Z" fill="#7B61FF"/>
</svg>
